<?xml version="1.0" standalone="no"?>
<!DOCTYPE svg PUBLIC "-//W3C//DTD SVG 20010904//EN"
 "http://www.w3.org/TR/2001/REC-SVG-20010904/DTD/svg10.dtd">
<svg version="1.0" xmlns="http://www.w3.org/2000/svg"
 width="960.000000pt" height="960.000000pt" viewBox="0 0 960.000000 960.000000"
 preserveAspectRatio="xMidYMid meet">

<g transform="translate(0.000000,960.000000) scale(0.100000,-0.100000)"
fill="#000000" stroke="none">
<path d="M1910 7533 c-268 -42 -507 -135 -778 -303 -194 -119 -441 -331 -580
-495 -139 -164 -269 -410 -326 -615 -46 -171 -48 -429 -2 -583 63 -211 183
-365 351 -449 98 -49 162 -63 290 -61 137 1 229 24 369 92 277 134 482 377
572 676 34 114 39 270 11 351 -23 66 -75 126 -135 155 -89 44 -259 22 -364
-47 -57 -37 -50 -48 25 -38 34 5 103 9 153 9 84 0 94 -2 139 -30 158 -98 128
-393 -72 -693 -92 -139 -225 -262 -333 -309 -122 -53 -190 -68 -320 -67 -111
0 -132 3 -193 27 -88 34 -142 73 -212 149 -68 75 -125 190 -151 303 -26 109
-25 340 0 440 63 248 169 468 309 640 113 138 293 304 452 416 209 148 501
277 735 325 108 22 341 25 419 5 133 -34 212 -81 257 -153 71 -113 71 -393 -1
-677 -40 -160 -74 -246 -248 -641 -299 -679 -377 -918 -377 -1152 0 -163 37
-266 125 -346 64 -59 120 -78 225 -75 250 5 550 243 822 653 74 112 88 118 69
32 -19 -89 -33 -307 -27 -405 11 -181 62 -312 144 -374 75 -57 168 -67 213
-22 30 30 9 49 -53 49 -112 0 -150 58 -156 240 -11 342 122 809 368 1285 56
109 103 214 110 246 11 51 11 61 -6 95 -11 21 -26 42 -35 47 -40 24 -121 -33
-186 -131 -20 -29 -99 -180 -176 -335 -276 -558 -424 -809 -591 -999 -120
-137 -200 -204 -305 -256 -64 -32 -85 -37 -142 -37 -75 0 -106 16 -146 75 -54
79 -67 235 -34 410 33 167 126 436 232 669 221 481 336 768 375 930 24 99 43
256 43 346 0 348 -191 570 -539 625 -62 9 -267 12 -320 3z"/>
<path d="M5255 6141 c-97 -60 -122 -168 -53 -233 25 -23 39 -28 80 -28 113 0
186 89 164 202 -13 68 -122 102 -191 59z"/>
<path d="M6175 5789 c-175 -17 -352 -132 -497 -322 -72 -94 -130 -190 -210
-351 -59 -117 -170 -304 -212 -355 -47 -57 -100 -104 -139 -122 -104 -47 -177
-4 -177 103 0 59 15 104 110 323 191 445 250 589 250 615 0 22 -6 30 -31 39
-32 11 -231 16 -241 6 -3 -3 3 -22 13 -43 11 -20 19 -44 19 -54 0 -16 -81
-237 -125 -343 -20 -46 -103 -214 -132 -265 -132 -233 -254 -375 -341 -400
-51 -14 -56 -13 -80 13 -49 52 -19 200 91 447 57 129 206 426 241 483 43 70
74 137 63 138 -67 6 -153 -21 -274 -86 -83 -44 -229 -135 -273 -171 -89 -72
-185 -162 -240 -225 -112 -126 -131 -146 -123 -124 12 36 195 358 249 440 29
44 72 100 94 125 l41 45 -48 12 c-106 25 -173 9 -229 -54 -54 -61 -189 -317
-389 -738 -29 -60 -82 -171 -119 -246 -36 -75 -66 -139 -66 -141 0 -8 153 3
187 14 26 7 40 23 69 76 114 209 244 411 325 507 129 152 310 300 381 311 30
5 38 3 48 -15 16 -31 -1 -76 -67 -184 -127 -208 -183 -353 -183 -478 0 -96 8
-122 49 -167 72 -78 181 -92 295 -36 64 31 180 145 236 233 l35 54 6 -71 c9
-96 23 -132 67 -175 48 -46 78 -57 161 -57 126 0 237 81 359 264 l47 71 6 -71
c8 -86 30 -136 84 -189 85 -85 184 -98 300 -40 71 36 175 135 235 225 24 36
46 67 49 70 4 3 30 42 60 88 29 45 57 82 62 82 5 0 -60 -138 -144 -307 -162
-328 -195 -398 -317 -673 -141 -317 -143 -357 -24 -472 l59 -57 12 37 c6 20
20 66 31 102 106 347 529 1318 701 1608 17 29 31 55 31 58 0 2 11 22 25 44 14
22 24 40 23 41 -11 3 -55 8 -123 14 -123 10 -121 12 -311 -298 -247 -401 -443
-569 -543 -463 -88 93 -6 351 202 636 72 100 243 275 314 323 98 67 204 92
262 62 34 -17 77 -66 86 -97 11 -34 35 -58 60 -58 37 0 47 52 19 100 -19 31
-120 99 -175 118 -54 18 -156 28 -224 21z"/>
<path d="M8543 5785 c-129 -36 -269 -136 -384 -274 -57 -69 -145 -217 -178
-299 -18 -42 -35 -84 -40 -92 -4 -8 -30 -55 -56 -105 -110 -205 -223 -339
-312 -369 -57 -20 -90 -7 -116 44 -46 89 14 279 224 700 98 197 167 305 214
336 46 30 30 36 -94 33 -101 -3 -124 -7 -148 -24 -19 -15 -60 -85 -133 -231
-308 -617 -482 -858 -629 -872 -43 -4 -50 -2 -71 24 -20 26 -22 36 -17 109 9
117 30 170 222 557 73 147 148 287 166 310 38 50 98 108 110 108 5 0 9 5 9 11
0 8 -41 10 -134 7 -164 -4 -172 -8 -234 -129 -24 -46 -88 -171 -143 -277 -54
-106 -99 -199 -99 -207 0 -8 8 -18 17 -24 16 -8 13 -18 -29 -104 -110 -223
-100 -371 31 -439 156 -81 314 5 502 273 32 46 65 93 73 104 12 17 12 9 -1
-55 -27 -139 2 -262 75 -318 31 -24 44 -27 111 -27 97 0 145 23 236 112 60 59
165 201 165 224 0 5 5 9 10 9 6 0 10 -13 10 -30 0 -46 21 -131 42 -173 83
-166 319 -215 526 -112 81 41 183 139 249 239 51 78 203 384 203 410 0 21 -33
20 -52 -1 -8 -10 -32 -56 -54 -103 -162 -355 -378 -554 -571 -525 -60 9 -116
61 -133 125 -16 60 -7 229 17 299 l18 55 65 12 c86 17 177 47 277 94 110 51
253 189 303 293 33 68 49 152 36 199 -23 89 -158 138 -283 103z m183 -90 c24
-37 12 -114 -32 -205 -52 -106 -160 -212 -269 -265 -86 -41 -186 -75 -223 -75
-31 0 -24 20 46 133 74 121 149 219 229 300 130 132 212 169 249 112z"/>
<path d="M4665 4175 c-170 -39 -340 -132 -496 -272 -42 -38 -90 -85 -108 -105
-18 -21 -40 -38 -48 -38 -40 0 -151 88 -179 141 -16 32 -18 73 -5 98 6 10 6
23 0 32 -8 12 -13 10 -29 -10 -14 -16 -20 -38 -20 -75 0 -80 41 -134 148 -197
28 -17 52 -33 52 -35 0 -3 -9 -15 -21 -27 -69 -74 -172 -266 -215 -402 -25
-77 -29 -106 -29 -205 0 -103 3 -120 25 -164 36 -71 85 -100 174 -104 58 -3
84 1 140 22 101 38 226 126 344 242 61 60 101 93 98 80 -52 -179 -48 -270 14
-339 26 -30 33 -32 92 -32 96 1 164 43 261 163 9 12 17 26 17 30 0 4 9 18 20
32 l20 25 0 -24 c0 -14 9 -44 21 -67 22 -46 59 -67 101 -57 46 11 126 83 168
152 14 22 27 41 30 41 3 0 4 -28 2 -62 -4 -81 19 -124 73 -134 55 -10 116 39
185 146 l35 55 5 -57 c9 -106 69 -152 186 -145 39 2 85 11 104 20 37 19 50 16
30 -8 -11 -13 -8 -15 21 -15 64 0 73 8 134 112 32 55 79 127 105 159 71 89
167 169 202 169 30 0 21 -37 -32 -129 -74 -128 -90 -241 -41 -285 34 -31 94
-32 143 -3 44 26 56 38 97 96 l24 34 14 -53 c16 -65 18 -67 53 -85 45 -23 84
-9 148 54 60 58 102 110 102 123 0 4 3 8 8 8 4 0 6 -31 4 -70 -3 -66 -2 -71
26 -100 36 -35 64 -38 112 -9 83 49 159 165 246 374 l41 100 39 -1 c22 -1 51
-6 67 -12 34 -14 36 -52 6 -101 -45 -73 -88 -168 -99 -214 -29 -131 64 -202
167 -128 43 31 111 128 162 228 35 71 36 73 19 73 -7 0 -26 -28 -43 -62 -65
-135 -142 -231 -179 -226 -57 9 -44 79 55 288 37 80 69 158 71 174 l3 28 -114
-2 -115 -1 42 45 c60 65 66 147 12 176 -31 17 -56 -3 -69 -57 -63 -242 -116
-380 -198 -510 -61 -98 -105 -143 -139 -143 -22 0 -24 4 -24 50 0 71 57 215
124 313 15 21 24 43 21 48 -11 17 -81 10 -108 -11 -14 -11 -45 -55 -68 -98
-123 -226 -222 -331 -278 -295 -12 8 -16 26 -15 70 1 103 90 253 216 368 89
80 164 93 200 35 17 -26 38 -26 38 1 0 47 -93 87 -174 75 -133 -20 -242 -120
-332 -305 -90 -186 -170 -283 -218 -265 -22 9 -21 87 3 155 10 30 55 125 99
212 76 150 79 157 56 157 -68 0 -245 -115 -352 -228 l-63 -67 67 135 c125 251
291 546 336 596 23 26 15 34 -37 34 -27 0 -51 -7 -68 -20 -34 -27 -105 -156
-305 -558 -143 -288 -171 -338 -206 -367 -105 -85 -213 -72 -232 29 -21 116
43 273 159 388 50 49 77 62 118 56 22 -3 24 -8 23 -51 0 -32 -7 -56 -22 -77
-28 -37 -27 -40 2 -40 47 0 97 89 80 142 -30 97 -190 87 -297 -18 -35 -35 -60
-74 -196 -310 -57 -98 -111 -157 -143 -152 -33 4 -36 71 -7 152 25 69 93 202
117 229 14 16 14 19 2 27 -25 16 -76 11 -102 -9 -13 -11 -39 -48 -58 -83 -86
-164 -193 -301 -246 -314 -45 -11 -59 6 -58 72 1 102 96 262 221 373 86 77
156 87 202 29 16 -19 41 -19 41 1 0 19 -41 52 -81 67 -91 33 -215 -9 -310
-105 -46 -47 -70 -84 -118 -183 -114 -239 -250 -378 -343 -355 -34 9 -48 46
-48 124 0 148 77 338 207 509 60 80 76 130 48 157 -9 9 -20 17 -25 17 -18 0
-72 -54 -97 -99 -28 -50 -118 -184 -144 -216 -264 -319 -432 -450 -594 -463
-78 -6 -114 7 -140 50 -70 119 -15 321 166 613 38 61 77 120 87 133 l18 24 65
-19 c53 -15 101 -18 289 -18 200 0 235 3 315 23 225 57 365 176 365 312 0 84
-35 136 -122 182 -37 19 -61 23 -163 25 -75 1 -143 -3 -180 -12z m323 -55 c54
-31 72 -64 72 -132 0 -126 -119 -233 -315 -283 -78 -20 -299 -37 -395 -29 -91
6 -220 32 -220 44 0 26 193 217 285 282 112 79 178 109 320 142 11 3 63 4 115
3 80 -2 102 -7 138 -27z"/>
</g>
</svg>
